<mxfile host="app.diagrams.net" agent="Mozilla/5.0 (Macintosh; Intel Mac OS X 10_15_7) AppleWebKit/605.1.15 (KHTML, like Gecko) Version/16.1 Safari/605.1.15" version="24.7.12">
  <diagram name="Página-1" id="4ZRN4UWjjM0IzHD2vcOy">
    <mxGraphModel dx="1074" dy="1848" grid="1" gridSize="15" guides="1" tooltips="1" connect="1" arrows="1" fold="1" page="1" pageScale="1" pageWidth="827" pageHeight="1169" background="none" math="0" shadow="0">
      <root>
        <mxCell id="0" />
        <mxCell id="1" parent="0" />
        <mxCell id="WcUvovQqYXi-BetBfTI6-1" value="Título OLES" style="rounded=0;whiteSpace=wrap;html=1;" vertex="1" parent="1">
          <mxGeometry x="291" y="60" width="246" height="30" as="geometry" />
        </mxCell>
        <mxCell id="WcUvovQqYXi-BetBfTI6-4" value="Objetivos de OLES y de esta páginas." style="text;html=1;whiteSpace=wrap;overflow=hidden;rounded=0;" vertex="1" parent="1">
          <mxGeometry x="298" y="110" width="239" height="50" as="geometry" />
        </mxCell>
        <mxCell id="WcUvovQqYXi-BetBfTI6-5" value="LOGOS" style="rounded=1;whiteSpace=wrap;html=1;" vertex="1" parent="1">
          <mxGeometry x="10" y="-30" width="810" height="60" as="geometry" />
        </mxCell>
        <mxCell id="WcUvovQqYXi-BetBfTI6-28" style="edgeStyle=orthogonalEdgeStyle;rounded=0;orthogonalLoop=1;jettySize=auto;html=1;exitX=0.5;exitY=1;exitDx=0;exitDy=0;entryX=0;entryY=0.75;entryDx=0;entryDy=0;" edge="1" parent="1" source="WcUvovQqYXi-BetBfTI6-10" target="WcUvovQqYXi-BetBfTI6-27">
          <mxGeometry relative="1" as="geometry" />
        </mxCell>
        <mxCell id="WcUvovQqYXi-BetBfTI6-10" value="Escoger el año" style="rounded=0;whiteSpace=wrap;html=1;" vertex="1" parent="1">
          <mxGeometry x="20" y="160" width="250" height="60" as="geometry" />
        </mxCell>
        <mxCell id="WcUvovQqYXi-BetBfTI6-11" value="Escoger temáticas" style="rounded=0;whiteSpace=wrap;html=1;" vertex="1" parent="1">
          <mxGeometry x="544" y="160" width="250" height="60" as="geometry" />
        </mxCell>
        <mxCell id="WcUvovQqYXi-BetBfTI6-14" value="&lt;ul&gt;&lt;li&gt;Delincuencia&lt;/li&gt;&lt;li&gt;Manifestaciones&lt;/li&gt;&lt;li&gt;Conflicto Mapuche&lt;/li&gt;&lt;/ul&gt;" style="text;strokeColor=none;fillColor=none;html=1;whiteSpace=wrap;verticalAlign=middle;overflow=hidden;" vertex="1" parent="1">
          <mxGeometry x="590" y="240" width="165" height="80" as="geometry" />
        </mxCell>
        <mxCell id="WcUvovQqYXi-BetBfTI6-15" value="Escoger el medio disponible" style="rounded=0;whiteSpace=wrap;html=1;" vertex="1" parent="1">
          <mxGeometry x="312.5" y="160" width="210" height="60" as="geometry" />
        </mxCell>
        <mxCell id="WcUvovQqYXi-BetBfTI6-16" value="frame" style="shape=umlFrame;whiteSpace=wrap;html=1;pointerEvents=0;strokeColor=#d6b656;fillColor=#fff2cc;" vertex="1" parent="1">
          <mxGeometry x="45" y="345" width="750" height="175" as="geometry" />
        </mxCell>
        <mxCell id="WcUvovQqYXi-BetBfTI6-18" value="GRÁFICO" style="text;html=1;align=center;verticalAlign=middle;whiteSpace=wrap;rounded=0;" vertex="1" parent="1">
          <mxGeometry x="357" y="390" width="112.5" height="60" as="geometry" />
        </mxCell>
        <mxCell id="WcUvovQqYXi-BetBfTI6-27" value="MES" style="rounded=1;whiteSpace=wrap;html=1;" vertex="1" parent="1">
          <mxGeometry x="165" y="240" width="75" height="25" as="geometry" />
        </mxCell>
        <mxCell id="WcUvovQqYXi-BetBfTI6-29" value="LOGOS" style="rounded=1;whiteSpace=wrap;html=1;" vertex="1" parent="1">
          <mxGeometry x="8.25" y="1169" width="810" height="60" as="geometry" />
        </mxCell>
        <mxCell id="WcUvovQqYXi-BetBfTI6-30" value="Equipo&lt;div&gt;Mónica&lt;/div&gt;&lt;div&gt;Matías&lt;/div&gt;&lt;div&gt;Matías&lt;/div&gt;&lt;div&gt;Ismael&lt;/div&gt;" style="rounded=0;whiteSpace=wrap;html=1;" vertex="1" parent="1">
          <mxGeometry x="292" y="975" width="246" height="90" as="geometry" />
        </mxCell>
        <mxCell id="WcUvovQqYXi-BetBfTI6-31" value="Título OLES" style="rounded=0;whiteSpace=wrap;html=1;" vertex="1" parent="1">
          <mxGeometry x="292" y="540" width="246" height="30" as="geometry" />
        </mxCell>
        <mxCell id="WcUvovQqYXi-BetBfTI6-32" value="Escoger el año" style="rounded=0;whiteSpace=wrap;html=1;" vertex="1" parent="1">
          <mxGeometry x="21" y="640" width="250" height="60" as="geometry" />
        </mxCell>
        <mxCell id="WcUvovQqYXi-BetBfTI6-34" value="Actor mencionado" style="rounded=0;whiteSpace=wrap;html=1;" vertex="1" parent="1">
          <mxGeometry x="537" y="640" width="229.5" height="65" as="geometry" />
        </mxCell>
        <mxCell id="WcUvovQqYXi-BetBfTI6-37" value="frame" style="shape=umlFrame;whiteSpace=wrap;html=1;pointerEvents=0;strokeColor=#d6b656;fillColor=#fff2cc;" vertex="1" parent="1">
          <mxGeometry x="45" y="750" width="750" height="175" as="geometry" />
        </mxCell>
        <mxCell id="WcUvovQqYXi-BetBfTI6-38" value="GRÁFICO" style="text;html=1;align=center;verticalAlign=middle;whiteSpace=wrap;rounded=0;" vertex="1" parent="1">
          <mxGeometry x="361.25" y="807.5" width="112.5" height="60" as="geometry" />
        </mxCell>
      </root>
    </mxGraphModel>
  </diagram>
</mxfile>
